<?xml version="1.0" encoding="iso-8859-1"?>
<!-- Uploaded to: SVG Repo, www.svgrepo.com, Generator: SVG Repo Mixer Tools -->
<svg fill="#dbdbdb" version="1.1" id="Layer_1" xmlns="http://www.w3.org/2000/svg" xmlns:xlink="http://www.w3.org/1999/xlink" 
	 viewBox="0 0 496 496" xml:space="preserve">
<g>
	<g>
		<g>
			<path d="M460.408,332.608l-151.376-59.224L240,181.336V0H32v184c0,46.736-4.48,69.968-8.808,92.448
				C19.496,295.64,16,313.784,16,344v56H0v96h48v-16h16v16h48v-16h16v16h48v-16h80v16h48v-16h16v16h48v-16h16v16h48v-16h16v16h48
				V384.76C496,361.544,482.032,341.08,460.408,332.608z M240,208h-32v-56h16v34.664L240,208z M224,104h-16V48h16V104z M48,16h176
				v16h-32v16H48V16z M48,64h144v24H48V64z M48,104h144v16h32v16h-32v16H48V104z M48,184v-16h144v24H47.952
				C47.976,189.4,48,186.744,48,184z M38.912,279.472c3.48-18.128,7.352-38.264,8.64-71.472H192v16h60l46.968,62.616l83.048,32.504
				c-23.672,25.832-36.992,58.784-37.84,93.912c-24.136-1.568-48.288-3.56-72.056-5.544c-30.896-2.584-60.608-5.04-88.464-6.392
				C180.024,333.728,124.248,280,56,280H38.808C38.84,279.824,38.872,279.648,38.912,279.472z M480,480h-16v-16h-48v16h-16v-16h-48
				v16h-16v-16h-48v16h-16v-16H160v16h-16v-16H96v16H80v-16H32v16H16v-32h16v-16H16v-16h8h8h16v-16H32v-56
				c0-20.16,1.664-34.712,3.88-48H56c59.208,0,107.696,46.208,111.616,104.44c-8.04-0.264-15.952-0.44-23.616-0.44H64v16h80
				c37.84,0,81.048,3.608,126.792,7.432C321.272,427.64,373.48,432,424,432h56V480z M480,416h-56
				c-21.016,0-42.416-0.872-63.872-2.08c0.672-33.344,13.872-64.616,37.528-88.264l-0.688-0.688l57.608,22.544
				C470.024,353.56,480,368.176,480,384.76V416z"/>
			<rect x="48" y="432" width="16" height="16"/>
		</g>
	</g>
</g>
</svg>