<?xml version="1.0" encoding="iso-8859-1"?>
<!-- Uploaded to: SVG Repo, www.svgrepo.com, Generator: SVG Repo Mixer Tools -->
<!DOCTYPE svg PUBLIC "-//W3C//DTD SVG 1.1//EN" "http://www.w3.org/Graphics/SVG/1.1/DTD/svg11.dtd">
<svg fill="#dbdbdb" height="800px" width="800px" version="1.1" id="Capa_1" xmlns="http://www.w3.org/2000/svg" xmlns:xlink="http://www.w3.org/1999/xlink" 
	 viewBox="0 0 398.632 398.632" xml:space="preserve">
<g>
	<g>
		<g>
			<g>
				<g>
					<path d="M99.056,303.576c2.428,0,4.559-1.771,4.938-4.246l12.199-79.849c0.416-2.729-1.459-5.28-4.188-5.697
						c-2.73-0.417-5.281,1.457-5.699,4.188L94.107,297.82c-0.416,2.73,1.459,5.281,4.188,5.697
						C98.55,303.556,98.806,303.576,99.056,303.576z"/>
				</g>
				<g>
					<path d="M57.578,303.576c0.251,0,0.505-0.02,0.762-0.059c2.729-0.416,4.604-2.967,4.188-5.697l-12.199-79.849
						c-0.418-2.73-2.965-4.608-5.699-4.188c-2.729,0.417-4.604,2.968-4.188,5.697L52.64,299.33
						C53.019,301.804,55.15,303.576,57.578,303.576z"/>
				</g>
			</g>
			<g>
				<path d="M78.317,303.576c2.761,0,5-2.238,5-5v-79.85c0-2.762-2.239-5-5-5c-2.761,0-5,2.238-5,5v79.85
					C73.317,301.337,75.556,303.576,78.317,303.576z"/>
			</g>
		</g>
		<path d="M0.691,167.821l2.124,11.453c6.307,34.004,22.909,123.521,25.343,137.899l-4.531,62.898
			c-0.1,1.385,0.381,2.748,1.327,3.766c0.946,1.016,2.271,1.594,3.66,1.594h115.251c1.453,0,2.835-0.633,3.785-1.734
			c0.949-1.1,1.373-2.559,1.161-3.996c-0.056-0.383-5.489-38.771,8.128-61.078c0,0,38.533-63.062,50.279-82.759
			c8.119-13.614,5.51-22.375,3.232-26.385c-3.133-5.516-9.094-8.809-15.945-8.809c-5.346,0-10.477,2.106-14.077,5.778
			c-8.401,8.568-28.019,30.369-30.716,33.136c-0.506-21.299,2.932-121.703,3.031-124.824c0.186-5.824-1.734-11.119-5.404-14.908
			c-3.369-3.479-8.057-5.474-12.858-5.474c-8.726,0-18.187,6.723-19.655,21.744c-0.723,7.384-1.85,18.046-3.045,29.137
			c-0.206-7.648-0.355-14.994-0.475-20.929c-0.188-9.234-0.35-17.209-0.574-21.729c-0.56-11.282-9.4-17.185-17.843-17.185
			c-9.139,0-18.485,6.759-18.669,19.678c0,0-0.406,26.689-0.621,36.297c-0.496-7.326-0.971-14.253-1.454-20.526
			c-1.037-13.468-9.815-19.496-18.054-19.496c-4.816,0-9.537,2.055-12.949,5.637c-3.935,4.13-5.927,10.014-5.609,16.566
			c0.609,12.559,1.073,23.126,1.422,32.011c-0.061-0.359-1.634-16.356-18.204-16.356c-5.401,0-10.46,2.357-13.881,6.47
			C1.783,149.407-1.448,156.257,0.691,167.821z M33.987,375.431l0.503-6.986h103.325c0.118,2.684,0.289,5.047,0.461,6.986H33.987z
			 M12.557,152.092c2.073-2.493,4.77-2.865,6.193-2.865c3.488,0,7.364,2.139,8.159,6.918c0.537,3.229,7.701,45.776,9.896,49.552
			c1.53,2.633,5.108,2.498,5.294,2.481c0.002,0,0.004,0,0.006,0c1.855,0,3.688-1.098,4.523-2.873
			c1.039-2.213,2.61-5.556-1.107-82.217c-0.186-3.848,0.803-7.023,2.861-9.185c1.535-1.61,3.615-2.534,5.709-2.534
			c3.525,0,7.5,2.696,8.083,10.264c0.522,6.775,1.035,14.346,1.579,22.361c2.665,39.305,3.877,52.156,6.265,55.99
			c0.918,1.474,2.526,2.355,4.239,2.356c1.204,0.056,2.254-0.126,3.193-0.606c0.945-0.482,1.711-1.25,2.19-2.195
			c2.086-4.12,4.579-94.304,4.579-94.304c0.102-7.247,4.734-9.818,8.669-9.818c3.448,0,7.574,2.012,7.856,7.681
			c0.217,4.373,2.086,85.267,5.113,92.224c0.828,1.899,2.771,3.084,5.727,3.084c2.594,0.001,4.762-1.941,4.984-4.528
			c0.123-1.435,4.004-51.788,8.207-76.782c1.563-9.291,5.615-12.717,9.704-12.717c2.11,0,4.179,0.886,5.676,2.432
			c1.796,1.854,2.691,4.493,2.591,7.633c-0.098,3.116-5.093,129.105-1.487,136.009c0.989,1.893,3.032,2.825,5.151,2.825
			c4.441,0.001,8.143-3.893,20.297-17.399c5.617-6.243,12.607-14.012,20.859-22.427c1.732-1.767,4.262-2.78,6.938-2.78
			c3.207,0,5.917,1.401,7.25,3.747c2.049,3.607,0.91,9.558-3.125,16.325c-11.719,19.649-50.227,82.669-50.227,82.669
			c-8.198,13.43-10.448,31.098-10.714,45.033H35.21c0,0,2.975-41.938,2.91-42.326c-2.061-12.436-27.596-150.117-27.596-150.117
			C9.406,159.953,10.126,155.013,12.557,152.092z"/>
	</g>
	<g>
		<g>
			<g>
				<g>
					<path d="M299.576,231.359c-2.428,0-4.559-1.771-4.938-4.246l-12.199-79.85c-0.416-2.729,1.459-5.279,4.188-5.697
						c2.73-0.416,5.281,1.457,5.699,4.188l12.199,79.85c0.416,2.73-1.459,5.281-4.188,5.697
						C300.082,231.339,299.826,231.359,299.576,231.359z"/>
				</g>
				<g>
					<path d="M341.054,231.359c-0.251,0-0.505-0.02-0.762-0.059c-2.729-0.416-4.604-2.967-4.188-5.697l12.199-79.85
						c0.418-2.73,2.965-4.607,5.699-4.188c2.728,0.418,4.603,2.969,4.188,5.697l-12.199,79.85
						C345.613,229.587,343.482,231.359,341.054,231.359z"/>
				</g>
			</g>
			<g>
				<path d="M320.315,231.359c-2.761,0-5-2.238-5-5v-79.85c0-2.762,2.239-5,5-5c2.761,0,5,2.238,5,5v79.85
					C325.315,229.121,323.076,231.359,320.315,231.359z"/>
			</g>
		</g>
		<path d="M393.762,73.48c-3.421-4.113-8.479-6.471-13.881-6.471c-16.57,0-18.143,15.998-18.204,16.357
			c0.349-8.885,0.813-19.453,1.422-32.012c0.317-6.553-1.675-12.436-5.609-16.566c-3.412-3.582-8.133-5.637-12.949-5.637
			c-8.238,0-17.017,6.029-18.054,19.496c-0.483,6.273-0.958,13.201-1.454,20.527c-0.215-9.607-0.621-36.297-0.621-36.297
			c-0.184-12.92-9.53-19.678-18.669-19.678c-8.442,0-17.283,5.902-17.843,17.184c-0.225,4.52-0.387,12.494-0.574,21.729
			c-0.119,5.936-0.269,13.281-0.475,20.93c-1.195-11.092-2.322-21.754-3.045-29.137c-1.469-15.021-10.93-21.744-19.655-21.744
			c-4.802,0-9.489,1.994-12.858,5.473c-3.67,3.789-5.59,9.084-5.404,14.908c0.1,3.121,3.537,103.525,3.031,124.824
			c-2.697-2.766-22.314-24.566-30.716-33.135c-3.601-3.672-8.732-5.779-14.077-5.779c-6.852,0-12.813,3.293-15.945,8.809
			c-2.277,4.01-4.887,12.771,3.232,26.385c11.746,19.697,50.279,82.76,50.279,82.76c13.617,22.307,8.184,60.695,8.128,61.078
			c-0.212,1.438,0.212,2.897,1.161,3.996c0.95,1.102,2.332,1.734,3.785,1.734h115.251c1.389,0,2.714-0.578,3.66-1.594
			c0.946-1.018,1.427-2.381,1.327-3.766l-4.531-62.898c2.434-14.379,19.036-103.896,25.343-137.9l2.124-11.453
			C400.08,84.041,396.849,77.189,393.762,73.48z M260.356,303.214c0.172-1.94,0.343-4.304,0.461-6.986h103.325l0.503,6.986H260.356z
			 M388.107,93.785c0,0-25.535,137.682-27.596,150.117c-0.064,0.389,2.91,42.326,2.91,42.326h-102.48
			c-0.266-13.936-2.516-31.605-10.714-45.033c0,0-38.508-63.02-50.227-82.67c-4.035-6.768-5.174-12.717-3.125-16.324
			c1.333-2.346,4.043-3.748,7.25-3.748c2.676,0,5.205,1.014,6.938,2.781c8.252,8.414,15.242,16.184,20.859,22.426
			c12.154,13.508,15.855,17.4,20.297,17.4c2.119,0,4.162-0.932,5.151-2.826c3.605-6.903-1.39-132.893-1.487-136.008
			c-0.101-3.141,0.795-5.779,2.591-7.633c1.497-1.547,3.565-2.432,5.676-2.432c4.089,0,8.142,3.426,9.704,12.717
			c4.203,24.994,8.084,75.348,8.207,76.781c0.223,2.588,2.391,4.529,4.984,4.529c2.955,0,4.898-1.186,5.727-3.084
			c3.027-6.957,4.897-87.852,5.113-92.225c0.282-5.668,4.408-7.68,7.856-7.68c3.935,0,8.567,2.57,8.669,9.818
			c0,0,2.493,90.184,4.579,94.303c0.479,0.945,1.245,1.715,2.19,2.195c0.939,0.48,1.989,0.662,3.193,0.607
			c1.713-0.002,3.321-0.883,4.239-2.357c2.388-3.834,3.6-16.686,6.265-55.99c0.544-8.016,1.057-15.586,1.579-22.361
			c0.583-7.566,4.558-10.264,8.083-10.264c2.094,0,4.174,0.924,5.709,2.535c2.059,2.16,3.048,5.336,2.861,9.184
			c-3.718,76.662-2.147,80.004-1.107,82.217c0.835,1.775,2.668,2.873,4.523,2.873c0.002,0,0.004,0,0.006,0
			c0.185,0.018,3.764,0.152,5.294-2.48c2.194-3.775,9.358-46.324,9.896-49.553c0.795-4.779,4.671-6.918,8.159-6.918
			c1.423,0,4.12,0.373,6.193,2.865C388.505,82.796,389.226,87.736,388.107,93.785z"/>
	</g>
</g>
</svg>